<?xml version="1.0" encoding="utf-8"?>
<!-- Generator: Adobe Illustrator 25.0.0, SVG Export Plug-In . SVG Version: 6.00 Build 0)  -->
<svg version="1.1" id="Layer_1" xmlns="http://www.w3.org/2000/svg" xmlns:xlink="http://www.w3.org/1999/xlink" x="0px" y="0px"
	 viewBox="0 0 1080 1080" style="enable-background:new 0 0 1080 1080;" xml:space="preserve">
<style type="text/css">
	.st0{fill:#3466AA;}
	.st1{fill:#E5E5E5;}
</style>
<rect x="-11.01" y="-11.01" class="st0" width="1102.02" height="1102.02"/>
<g>
	<path class="st1" d="M522.22,586.43h-80.19c-12.2,0-21.74-9.91-21.74-21.73V355.31h-35.86v203.67c0,34.7,28.61,63.31,63.31,63.31
		h114.68C547.84,612.9,534.59,600.03,522.22,586.43z"/>
	<path class="st1" d="M453.48,390.77c43.48,0,87.34,114.8,155.99,114.8h86.1v-35.47h-82.67c-33.56,0-60.26-45.39-93.06-79.33h175.73
		V355.3H453.48V390.77z"/>
	<path class="st1" d="M453.48,470.11v35.47c43.48,0,88.48,116.71,155.99,116.71h86.1v-35.47h-82.67
		C559.51,586.81,523.66,470.11,453.48,470.11z"/>
	<polygon class="st1" points="204.97,672.61 195.04,672.61 195.04,723.96 202.34,723.96 204.97,723.96 228.49,723.96 228.49,715.13 
		204.97,715.13 	"/>
	<rect x="235.65" y="672.61" class="st1" width="9.93" height="51.35"/>
	<path class="st1" d="M279.19,704.17l15.52,0.15c-0.3,1.52-0.77,2.9-1.42,4.12c-1.22,2.31-2.97,4.07-5.26,5.26
		c-2.29,1.19-5.04,1.79-8.25,1.79c-3.12,0-5.88-0.73-8.29-2.19c-2.41-1.46-4.31-3.49-5.7-6.1s-2.08-5.61-2.08-9.02
		c0-3.41,0.71-6.39,2.12-8.95c1.41-2.56,3.37-4.55,5.88-5.99c2.51-1.44,5.39-2.15,8.66-2.15c2.87,0,5.5,0.56,7.89,1.68
		c2.39,1.12,4.38,2.73,5.99,4.82l6.72-6.72c-2.34-2.87-5.28-5.1-8.84-6.68c-3.56-1.58-7.45-2.37-11.69-2.37
		c-3.8,0-7.33,0.67-10.59,2.01c-3.26,1.34-6.11,3.21-8.55,5.62c-2.44,2.41-4.33,5.21-5.7,8.4c-1.36,3.19-2.05,6.66-2.05,10.41
		c0,3.7,0.67,7.15,2.01,10.34c1.34,3.19,3.21,6,5.62,8.44c2.41,2.44,5.21,4.32,8.4,5.66c3.19,1.34,6.61,2.01,10.26,2.01
		c4.97,0,9.36-1.03,13.18-3.1c3.82-2.07,6.83-5.16,9.02-9.28c2.19-4.11,3.29-9.24,3.29-15.38v-1.39h-26.15V704.17z"/>
	<polygon class="st1" points="345.15,693.07 322.87,693.07 322.87,672.61 312.94,672.61 312.94,723.96 322.87,723.96 322.87,701.83 
		345.15,701.83 345.15,723.96 355.08,723.96 355.08,672.61 345.15,672.61 	"/>
	<polygon class="st1" points="361.95,681.45 378.31,681.45 378.31,723.96 388.32,723.96 388.32,681.45 404.68,681.45 404.68,672.61 
		361.95,672.61 	"/>
	<polygon class="st1" points="434.56,701.98 457.79,701.98 457.79,693.51 434.56,693.51 434.56,681.38 459.98,681.38 459.98,672.61 
		434.56,672.61 431.93,672.61 424.62,672.61 424.62,723.96 431.93,723.96 434.56,723.96 460.34,723.96 460.34,715.2 434.56,715.2 	
		"/>
	<polygon class="st1" points="501.25,705.91 475.54,672.61 468.6,672.61 468.6,723.96 478.53,723.96 478.53,690.86 504.1,723.96 
		511.26,723.96 511.26,672.61 501.25,672.61 	"/>
	<polygon class="st1" points="518.05,681.45 534.41,681.45 534.41,723.96 544.42,723.96 544.42,681.45 560.78,681.45 560.78,672.61 
		518.05,672.61 	"/>
	<polygon class="st1" points="577.58,701.98 600.81,701.98 600.81,693.51 577.58,693.51 577.58,681.38 603,681.38 603,672.61 
		577.58,672.61 574.95,672.61 567.65,672.61 567.65,723.96 574.95,723.96 577.58,723.96 603.37,723.96 603.37,715.2 577.58,715.2 	
		"/>
	<path class="st1" d="M640.4,700.63c2.53-1.24,4.49-2.97,5.88-5.19s2.08-4.83,2.08-7.85c0-2.92-0.69-5.5-2.08-7.74
		c-1.39-2.24-3.34-4-5.84-5.3c-2.51-1.29-5.42-1.94-8.73-1.94h-10.15h-2.63h-7.3v51.35h9.93v-21.48h1.73l16.39,21.48h12.05
		l-17.18-21.66C636.69,702.04,638.65,701.49,640.4,700.63z M621.55,680.72h9.28c2.43,0,4.32,0.67,5.66,2.01
		c1.34,1.34,2.01,3.01,2.01,5c0,2.19-0.67,3.91-2.01,5.15c-1.34,1.24-3.23,1.86-5.66,1.86h-9.28V680.72z"/>
	<path class="st1" d="M686.38,674.59c-2.61-1.32-5.54-1.97-8.8-1.97h-10.3h-2.63h-7.3v51.35h9.93V704.9h10.3
		c3.26,0,6.2-0.66,8.8-1.97c2.6-1.32,4.66-3.18,6.17-5.59c1.51-2.41,2.26-5.27,2.26-8.58s-0.76-6.17-2.26-8.58
		C691.05,677.76,688.99,675.9,686.38,674.59z M683.79,693.1c-0.73,1.19-1.73,2.11-3,2.74c-1.27,0.63-2.68,0.95-4.24,0.95h-9.28
		v-16.07h9.28c1.56,0,2.97,0.32,4.24,0.95c1.27,0.63,2.26,1.56,3,2.78c0.73,1.22,1.1,2.66,1.1,4.31
		C684.89,690.46,684.52,691.91,683.79,693.1z"/>
	<path class="st1" d="M730.61,700.63c2.53-1.24,4.49-2.97,5.88-5.19s2.08-4.83,2.08-7.85c0-2.92-0.69-5.5-2.08-7.74
		c-1.39-2.24-3.34-4-5.84-5.3c-2.51-1.29-5.42-1.94-8.73-1.94h-10.15h-2.63h-7.3v51.35h9.93v-21.48h1.73l16.39,21.48h12.05
		l-17.18-21.66C726.91,702.04,728.86,701.49,730.61,700.63z M711.77,680.72h9.28c2.43,0,4.32,0.67,5.66,2.01
		c1.34,1.34,2.01,3.01,2.01,5c0,2.19-0.67,3.91-2.01,5.15c-1.34,1.24-3.23,1.86-5.66,1.86h-9.28V680.72z"/>
	<rect x="747.56" y="672.61" class="st1" width="9.93" height="51.35"/>
	<path class="st1" d="M795.95,698.11c-1.44-1.17-3.02-2.12-4.75-2.85c-1.73-0.73-3.46-1.39-5.19-1.97
		c-1.73-0.58-3.31-1.19-4.75-1.83c-1.44-0.63-2.59-1.39-3.47-2.26c-0.88-0.88-1.31-2.02-1.31-3.43c0-1.66,0.66-2.92,1.97-3.8
		c1.31-0.88,3.12-1.31,5.41-1.31c2,0,3.79,0.39,5.37,1.17c1.58,0.78,3.13,2,4.64,3.65l6.57-6.57c-1.8-2.09-4.12-3.8-6.94-5.11
		c-2.83-1.32-5.99-1.97-9.5-1.97c-3.31,0-6.28,0.58-8.91,1.75c-2.63,1.17-4.7,2.85-6.21,5.04c-1.51,2.19-2.26,4.85-2.26,7.96
		c0,2.63,0.44,4.81,1.31,6.54c0.88,1.73,2.03,3.14,3.47,4.24c1.44,1.1,3.02,2.01,4.75,2.74c1.73,0.73,3.46,1.38,5.19,1.94
		c1.73,0.56,3.31,1.18,4.75,1.86c1.44,0.68,2.59,1.51,3.47,2.48c0.88,0.97,1.31,2.24,1.31,3.8c0,1.8-0.77,3.21-2.3,4.24
		s-3.59,1.53-6.17,1.53c-2.87,0-5.31-0.55-7.3-1.64c-2-1.1-3.75-2.64-5.26-4.64l-6.57,6.57c2.38,2.83,5.05,4.94,8,6.36
		s6.49,2.12,10.63,2.12c5.84,0,10.45-1.36,13.81-4.09c3.36-2.73,5.04-6.48,5.04-11.25c0-2.68-0.44-4.93-1.31-6.76
		C798.55,700.77,797.39,699.28,795.95,698.11z"/>
	<polygon class="st1" points="818.49,701.98 841.72,701.98 841.72,693.51 818.49,693.51 818.49,681.38 843.91,681.38 843.91,672.61 
		818.49,672.61 815.86,672.61 808.55,672.61 808.55,723.96 815.86,723.96 818.49,723.96 844.27,723.96 844.27,715.2 818.49,715.2 	
		"/>
	<path class="st1" d="M883.65,702.6c-0.88-1.83-2.03-3.32-3.47-4.49c-1.44-1.17-3.02-2.12-4.75-2.85c-1.73-0.73-3.46-1.39-5.19-1.97
		c-1.73-0.58-3.31-1.19-4.75-1.83c-1.44-0.63-2.59-1.39-3.47-2.26c-0.88-0.88-1.31-2.02-1.31-3.43c0-1.66,0.66-2.92,1.97-3.8
		c1.31-0.88,3.12-1.31,5.41-1.31c2,0,3.79,0.39,5.37,1.17c1.58,0.78,3.13,2,4.64,3.65l6.57-6.57c-1.8-2.09-4.12-3.8-6.94-5.11
		c-2.83-1.32-5.99-1.97-9.5-1.97c-3.31,0-6.28,0.58-8.91,1.75c-2.63,1.17-4.7,2.85-6.21,5.04c-1.51,2.19-2.26,4.85-2.26,7.96
		c0,2.63,0.44,4.81,1.31,6.54c0.88,1.73,2.03,3.14,3.47,4.24c1.44,1.1,3.02,2.01,4.75,2.74c1.73,0.73,3.46,1.38,5.19,1.94
		c1.73,0.56,3.31,1.18,4.75,1.86c1.44,0.68,2.59,1.51,3.47,2.48c0.88,0.97,1.31,2.24,1.31,3.8c0,1.8-0.77,3.21-2.3,4.24
		s-3.59,1.53-6.17,1.53c-2.87,0-5.31-0.55-7.3-1.64c-2-1.1-3.75-2.64-5.26-4.64l-6.57,6.57c2.38,2.83,5.05,4.94,8,6.36
		s6.49,2.12,10.63,2.12c5.84,0,10.45-1.36,13.81-4.09c3.36-2.73,5.04-6.48,5.04-11.25C884.96,706.68,884.52,704.42,883.65,702.6z"/>
</g>
</svg>
